{
  "title": "Terminator.Genisys.2015.HD-TS.XVID.AC3.HQ.Hive-CM8",
  "uid": 12096468,
  "size": 1805164480,
  "categoryP": "video",
  "categoryS": "movies",
  "magnet": "?xt=urn:btih:1050078314ba9ae2faf092b98e20f1000acda109&amp;dn=Terminator.Genisys.2015.HD-TS.XVID.AC3.HQ.Hive-CM8&amp;tr=udp%3A%2F%2Ftracker.openbittorrent.com%3A80&amp;tr=udp%3A%2F%2Fopen.demonii.com%3A1337&amp;tr=udp%3A%2F%2Ftracker.coppersurfer.tk%3A6969&amp;tr=udp%3A%2F%2Fexodus.desync.com%3A6969",
  "seeders": 374,
  "leechers": 107,
  "uploader": "xxxlavalxxx",
  "files": 6,
  "time": 1436161001,
  "description": " &lt;a href=&quot;http://extraimago.com/image/701&quot; rel=&quot;nofollow&quot; target=&quot;_NEW&quot;&gt;http://extraimago.com/image/701&lt;/a&gt;\n &lt;a href=&quot;\nhttp://www.imdb.com/title/tt1340138/&quot; rel=&quot;nofollow&quot; target=&quot;_NEW&quot;&gt;\nhttp://www.imdb.com/title/tt1340138/&lt;/a&gt;\n\n\nJohn Connor sends Kyle Reese back in time to protect Sarah Connor, but when he arrives in 1984, nothing is as he expected it to be.\n\nDirector: Alan Taylor\nWriters: Laeta Kalogridis, Patrick Lussier\nStars: Arnold Schwarzenegger, Jason Clarke, Emilia Clarke \nGenres: Action | Adventure | Sci-Fi | Thriller\nCountry: USA\nLanguage: English\n\n\nTerminator.Genisys.2015.HD-TS.XVID.AC3.HQ.Hive-CM8\n\nThx Hive\n\nCM8 Doing It Right The First Time\n\nSources:\n\nVideo: MRG + intro + afterending scenes\nAudio: Sweet Line Big Thx to S4NDM4N\n\nNotes:\n\nvideo from mrg was nice and complete only the intro was missing which i now got too\nthe cam itself is ok, the first hour is a bit darker than the rest, but more than watchable\n\nEncode:\n\nlooks like the cam is a mix of 3 recordings, needed to be cut in pieces and every part needed adjusting perspective and ar differently\nended up with 3 parts with different resolution, from 720x288 up to 720x336, since i didnt want to crop 50 lines i added virtual borders\nfor the parts that didnt have the highest height, so no eggheads, no shrinked ones, and nothing cropped\nsince the first hour is a bit darker than the rest i added brightness and contrast as needed without going over, colouring adjusted when needed too\n\nadded intro from a fan I.R thx m8, also appended the afterendcreditscene from another fan thx too\nso its all here from start to finish with great audio and all special effects are perfect now too\n\nfor the Audio i got another great perfect line no cleaning needed, lipsynced it to my video\n\nwill do me till a web-dl pops up\ngot very nice\nenjoy\n\nPS: a special thx to cadance who sent me a very nice audio for that movie, which i couldnt use cause the direct line is better\nthx m8\n\nVideo: 720x336 @bitrate 1700 2pass\nAudio: English Line Stereo 2.0\nSample: yes included dark,normal,daylight\n\nGeneral\n\nComplete name: Terminator.Genisys.2015.HD-TS.XVID.AC3.HQ.Hive-CM8.avi\nFormat: AVI\nFormat/Info: Audio Video Interleave\nFile size: 1.65 GiB\nDuration: 2h 0mn\nOverall bit rate: 1 969 Kbps\nWriting application: Nandub v1.0rc2\nWriting library: Nandub build 1853/release\n\nVideo\nID: 0\nFormat: MPEG-4 Visual\nFormat profile: Advanced Simple@L5\nFormat settings, BVOP: 2\nFormat settings, QPel: Yes\nFormat settings, GMC: No warppoints\nFormat settings, Matrix: Default (H.263)\nMuxing mode: Packed bitstream\nCodec ID: XVID\nCodec ID/Hint: XviD\nDuration: 2h 0mn\nBit rate: 1 701 Kbps\nWidth: 720 pixels\nHeight: 336 pixels\nDisplay aspect ratio: 2.143\nFrame rate: 29.970 fps\nColor space: YUV\nChroma subsampling: 4:2:0\nBit depth: 8 bits\nScan type: Progressive\nCompression mode: Lossy\nBits/(Pixel*Frame): 0.235\nStream size: 1.43 GiB (86%)\nWriting library: XviD 1.2.1 (UTC 2008-12-04)\n\nAudio\nID: 1\nFormat: AC-3\nFormat/Info: Audio Coding 3\nMode extension: CM (complete main)\nFormat settings, Endianness: Big\nCodec ID: 2000\nDuration: 2h 0mn\nBit rate mode: Constant\nBit rate: 256 Kbps\nChannel(s): 2 channels\nChannel positions: Front: L R\nSampling rate: 48.0 KHz\nBit depth: 16 bits\nCompression mode: Lossy\nStream size: 220 MiB (13%)\nAlignment: Split accross interleaves\nInterleave, duration: 33 ms (1.00 video frame)\nInterleave, preload duration: 500 ms\n\n &lt;a href=&quot;\nhttp://extraimago.com/image/7Ap&quot; rel=&quot;nofollow&quot; target=&quot;_NEW&quot;&gt;\nhttp://extraimago.com/image/7Ap&lt;/a&gt; &lt;a href=&quot;\nhttp://extraimago.com/image/7Ar&quot; rel=&quot;nofollow&quot; target=&quot;_NEW&quot;&gt;\nhttp://extraimago.com/image/7Ar&lt;/a&gt; &lt;a href=&quot;\nhttp://extraimago.com/image/7AG&quot; rel=&quot;nofollow&quot; target=&quot;_NEW&quot;&gt;\nhttp://extraimago.com/image/7AG&lt;/a&gt; &lt;a href=&quot;\nhttp://extraimago.com/image/7AP&quot; rel=&quot;nofollow&quot; target=&quot;_NEW&quot;&gt;\nhttp://extraimago.com/image/7AP&lt;/a&gt; &lt;a href=&quot;\nhttp://extraimago.com/image/7AX&quot; rel=&quot;nofollow&quot; target=&quot;_NEW&quot;&gt;\nhttp://extraimago.com/image/7AX&lt;/a&gt; &lt;a href=&quot;\nhttp://extraimago.com/image/7Ag&quot; rel=&quot;nofollow&quot; target=&quot;_NEW&quot;&gt;\nhttp://extraimago.com/image/7Ag&lt;/a&gt; &lt;a href=&quot;\nhttp://extraimago.com/image/7A5&quot; rel=&quot;nofollow&quot; target=&quot;_NEW&quot;&gt;\nhttp://extraimago.com/image/7A5&lt;/a&gt; &lt;a href=&quot;\nhttp://extraimago.com/image/7AD&quot; rel=&quot;nofollow&quot; target=&quot;_NEW&quot;&gt;\nhttp://extraimago.com/image/7AD&lt;/a&gt; &lt;a href=&quot;\nhttp://extraimago.com/image/7AF&quot; rel=&quot;nofollow&quot; target=&quot;_NEW&quot;&gt;\nhttp://extraimago.com/image/7AF&lt;/a&gt;",
  "parsed": {
    "xt": "urn:btih:1050078314ba9ae2faf092b98e20f1000acda109",
    "dn": "Terminator.Genisys.2015.HD-TS.XVID.AC3.HQ.Hive-CM8",
    "tr": [
      "udp://exodus.desync.com:6969",
      "udp://open.demonii.com:1337",
      "udp://tracker.coppersurfer.tk:6969",
      "udp://tracker.openbittorrent.com:80"
    ],
    "infoHash": "1050078314ba9ae2faf092b98e20f1000acda109",
    "infoHashBuffer": {
      "type": "Buffer",
      "data": [
        16,
        80,
        7,
        131,
        20,
        186,
        154,
        226,
        250,
        240,
        146,
        185,
        142,
        32,
        241,
        0,
        10,
        205,
        161,
        9
      ]
    },
    "name": "Terminator.Genisys.2015.HD-TS.XVID.AC3.HQ.Hive-CM8",
    "announce": [
      "udp://exodus.desync.com:6969",
      "udp://open.demonii.com:1337",
      "udp://tracker.coppersurfer.tk:6969",
      "udp://tracker.openbittorrent.com:80"
    ],
    "urlList": []
  },
  "previous": 481,
  "peers": 24,
  "last_updated": "2016-12-24T17:19:27.930Z"
}